<?xml version="1.0" standalone="no"?>
<!DOCTYPE svg PUBLIC "-//W3C//DTD SVG 20010904//EN"
 "http://www.w3.org/TR/2001/REC-SVG-20010904/DTD/svg10.dtd">
<svg version="1.0" xmlns="http://www.w3.org/2000/svg"
 width="1048.000000pt" height="273.000000pt" viewBox="0 0 1048.000000 273.000000"
 preserveAspectRatio="xMidYMid meet">

<g transform="translate(0.000000,273.000000) scale(0.100000,-0.100000)"
fill="#000000" stroke="none">
<path d="M1053 2300 c-12 -5 -26 -18 -32 -29 -15 -27 -15 -732 0 -786 14 -52
82 -117 144 -138 86 -30 210 -40 420 -34 248 6 321 24 387 94 52 54 58 86 58
288 0 202 -6 234 -58 288 -74 79 -169 96 -519 97 l-263 0 0 74 c0 40 -5 87
-10 103 -16 46 -73 65 -127 43z m698 -380 c40 -7 61 -18 82 -40 27 -30 27 -31
27 -180 0 -82 -4 -160 -10 -175 -20 -52 -61 -60 -310 -60 -243 0 -284 5 -324
36 l-26 20 0 205 0 204 254 0 c139 0 278 -4 307 -10z"/>
<path d="M3182 2300 c-12 -5 -27 -21 -32 -35 -6 -16 -10 -201 -10 -464 0 -428
0 -439 21 -465 17 -22 29 -26 68 -26 76 0 85 17 90 161 2 65 4 119 6 119 1 0
124 -63 273 -140 292 -151 319 -160 361 -116 17 18 22 33 19 62 l-3 39 -265
137 -264 136 109 52 c61 28 173 81 250 117 77 36 148 72 158 81 21 19 22 70 2
99 -33 48 -53 42 -353 -102 -155 -74 -284 -135 -287 -135 -3 0 -5 92 -5 204 0
124 -4 215 -11 235 -16 46 -70 63 -127 41z"/>
<path d="M9113 2300 c-34 -14 -43 -42 -43 -134 l0 -86 -35 0 c-71 0 -112 -83
-65 -130 13 -13 33 -20 60 -20 l40 0 0 -290 c0 -277 1 -291 20 -310 28 -28
102 -28 130 0 19 19 20 33 20 310 l0 290 144 0 c138 0 146 1 160 22 17 23 21
75 8 94 -18 27 -56 34 -181 34 l-131 0 0 94 c0 90 -1 96 -26 115 -28 22 -64
26 -101 11z"/>
<path d="M4388 2069 c-132 -19 -216 -84 -238 -181 -18 -81 -10 -394 12 -433
64 -118 191 -151 543 -142 237 5 310 22 373 85 54 54 62 92 62 304 0 181 0
185 -27 239 -56 110 -155 139 -473 137 -107 0 -221 -4 -252 -9z m528 -161 c17
-10 34 -25 38 -33 3 -9 6 -92 6 -184 0 -163 -1 -168 -24 -190 -35 -33 -133
-44 -341 -39 -183 5 -233 15 -263 50 -9 12 -12 60 -10 188 l3 173 27 20 c41
31 86 36 318 34 181 -2 220 -5 246 -19z"/>
<path d="M5598 2070 c-121 -19 -206 -77 -227 -155 -7 -24 -11 -143 -11 -296 0
-244 1 -258 21 -283 17 -22 29 -26 68 -26 86 0 86 -1 89 311 l3 269 32 17 c28
16 63 18 287 18 225 0 259 -2 288 -18 l32 -18 0 -263 c0 -251 1 -265 21 -290
17 -22 28 -26 70 -26 36 0 54 5 69 20 19 19 20 33 20 297 0 258 -1 280 -20
319 -24 49 -74 86 -150 110 -44 13 -103 17 -295 20 -132 1 -266 -1 -297 -6z"/>
<path d="M6818 2070 c-121 -19 -206 -77 -227 -155 -7 -24 -11 -143 -11 -296 0
-244 1 -258 21 -283 17 -22 29 -26 68 -26 86 0 86 -1 89 311 l3 269 32 17 c28
16 63 18 287 18 225 0 259 -2 288 -18 l32 -18 0 -263 c0 -251 1 -265 21 -290
17 -22 28 -26 70 -26 36 0 54 5 69 20 19 19 20 33 20 297 0 258 -1 280 -20
319 -24 49 -74 86 -150 110 -44 13 -103 17 -295 20 -132 1 -266 -1 -297 -6z"/>
<path d="M8064 2070 c-141 -22 -223 -75 -249 -163 -19 -62 -21 -345 -3 -415
15 -60 77 -124 144 -145 69 -23 173 -37 282 -37 85 0 95 2 117 25 28 27 32 70
11 101 -14 19 -28 21 -161 27 -111 4 -155 10 -183 24 -35 17 -37 21 -40 71
l-3 52 395 0 c481 0 436 -18 436 172 0 180 -23 224 -140 270 -51 20 -75 22
-305 24 -137 1 -273 -1 -301 -6z m543 -166 c24 -18 28 -29 31 -78 l3 -56 -331
0 -330 0 0 48 c0 101 37 112 362 109 223 -2 238 -3 265 -23z"/>
<path d="M2280 1773 c-16 -20 -20 -36 -16 -57 12 -57 4 -56 322 -56 l294 0 16
25 c20 31 11 90 -16 105 -11 6 -129 10 -299 10 l-280 0 -21 -27z"/>
<path d="M6022 908 c-7 -7 -12 -27 -12 -45 0 -26 -4 -33 -20 -33 -14 0 -20 -7
-20 -21 0 -12 8 -23 20 -26 18 -5 20 -14 20 -108 0 -107 9 -132 44 -119 13 5
16 24 16 115 l0 109 49 0 c49 0 79 18 66 40 -3 5 -31 10 -61 10 l-54 0 0 39
c0 26 -5 41 -16 45 -20 8 -18 8 -32 -6z"/>
<path d="M6993 913 c-8 -2 -13 -22 -13 -44 l0 -39 -114 0 c-120 0 -170 -11
-186 -40 -6 -10 -10 -57 -10 -104 0 -79 2 -86 26 -105 24 -19 40 -21 150 -21
133 0 165 8 183 47 15 34 15 285 -1 301 -13 13 -16 13 -35 5z m-13 -206 c0
-43 -5 -78 -12 -85 -8 -8 -49 -12 -120 -12 -107 0 -109 0 -118 26 -17 43 -12
102 10 124 18 18 33 20 130 20 l110 0 0 -73z"/>
<path d="M7342 908 c-7 -7 -12 -27 -12 -45 0 -26 -4 -33 -20 -33 -14 0 -20 -7
-20 -21 0 -12 8 -23 20 -26 18 -5 20 -14 20 -108 0 -107 9 -132 44 -119 13 5
16 24 16 115 l0 109 49 0 c49 0 79 18 66 40 -3 5 -31 10 -61 10 l-54 0 0 39
c0 26 -5 41 -16 45 -20 8 -18 8 -32 -6z"/>
<path d="M7572 912 c-9 -7 -12 -50 -10 -183 3 -166 4 -174 23 -174 19 0 20 8
23 113 l3 112 105 0 c145 0 144 1 144 -114 0 -98 10 -123 44 -110 13 5 16 24
16 113 0 103 -1 109 -26 132 -24 22 -34 24 -154 27 l-129 4 -3 41 c-3 42 -13
53 -36 39z"/>
<path d="M8005 886 c-26 -19 -13 -46 24 -46 35 0 50 28 25 47 -22 16 -26 16
-49 -1z"/>
<path d="M3423 810 l-33 -20 0 -94 c0 -90 1 -95 26 -115 24 -19 40 -21 160
-21 73 0 135 4 139 9 3 5 -2 17 -11 25 -12 13 -39 16 -129 16 -131 0 -135 2
-135 89 0 75 10 81 144 81 87 0 116 3 126 15 24 28 0 35 -128 35 -109 0 -132
-3 -159 -20z"/>
<path d="M3844 816 c-40 -18 -44 -30 -44 -131 0 -78 2 -85 26 -104 24 -19 40
-21 145 -21 65 0 129 5 142 11 35 16 47 49 47 129 0 58 -4 73 -24 97 -24 27
-27 28 -143 31 -84 1 -127 -2 -149 -12z m244 -48 c7 -7 12 -39 12 -73 0 -34
-5 -66 -12 -73 -8 -8 -48 -12 -115 -12 -91 0 -103 2 -113 19 -15 29 -12 104 6
129 14 20 23 22 113 22 62 0 101 -4 109 -12z"/>
<path d="M4295 820 c-41 -16 -46 -33 -43 -151 3 -106 4 -114 23 -114 18 0 20
8 25 100 3 55 9 106 13 113 9 13 190 18 221 6 13 -5 16 -24 16 -109 0 -86 3
-104 16 -109 34 -13 44 12 44 116 0 55 -4 108 -10 118 -5 10 -24 23 -41 29
-37 13 -234 14 -264 1z"/>
<path d="M4745 820 c-41 -16 -46 -33 -43 -151 3 -106 4 -114 23 -114 18 0 20
8 25 100 3 55 9 106 13 113 9 13 190 18 221 6 13 -5 16 -24 16 -109 0 -86 3
-104 16 -109 34 -13 44 12 44 116 0 55 -4 108 -10 118 -5 10 -24 23 -41 29
-37 13 -234 14 -264 1z"/>
<path d="M5194 816 c-40 -18 -44 -30 -44 -130 0 -109 11 -120 121 -125 74 -3
79 -2 79 17 0 25 -18 32 -80 32 -39 0 -52 4 -60 19 -5 11 -10 22 -10 25 0 3
63 6 139 6 77 0 146 3 155 6 12 5 16 20 16 64 0 87 -13 94 -164 98 -86 1 -130
-2 -152 -12z m256 -55 c20 -39 14 -41 -120 -41 -106 0 -130 3 -130 14 0 36 29
46 135 46 93 0 105 -2 115 -19z"/>
<path d="M5633 810 l-33 -20 0 -94 c0 -90 1 -95 26 -115 24 -19 40 -21 160
-21 73 0 135 4 139 9 3 5 -2 17 -11 25 -12 13 -39 16 -129 16 -131 0 -135 2
-135 89 0 75 10 81 144 81 87 0 116 3 126 15 24 28 0 35 -128 35 -109 0 -132
-3 -159 -20z"/>
<path d="M6264 816 c-40 -18 -44 -30 -44 -130 0 -109 11 -120 121 -125 74 -3
79 -2 79 17 0 25 -18 32 -80 32 -39 0 -52 4 -60 19 -5 11 -10 22 -10 25 0 3
63 6 139 6 77 0 146 3 155 6 12 5 16 20 16 64 0 87 -13 94 -164 98 -86 1 -130
-2 -152 -12z m256 -55 c20 -39 14 -41 -120 -41 -106 0 -130 3 -130 14 0 36 29
46 135 46 93 0 105 -2 115 -19z"/>
<path d="M8185 820 c-41 -16 -46 -33 -43 -151 3 -106 4 -114 23 -114 18 0 20
8 25 100 3 55 9 106 13 113 9 13 190 18 221 6 13 -5 16 -24 16 -109 0 -86 3
-104 16 -109 34 -13 44 12 44 116 0 55 -4 108 -10 118 -5 10 -24 23 -41 29
-37 13 -234 14 -264 1z"/>
<path d="M8623 810 l-33 -20 0 -93 c0 -130 2 -131 171 -135 71 -2 129 -8 129
-13 0 -11 -30 -18 -90 -21 -37 -3 -45 -6 -45 -23 0 -17 8 -21 45 -23 62 -5
108 6 131 29 17 17 19 33 19 140 0 66 -4 129 -10 139 -15 29 -65 40 -179 40
-88 0 -112 -3 -138 -20z m248 -40 c16 -9 19 -22 19 -85 l0 -75 -109 0 c-136 0
-145 6 -139 93 3 36 10 62 19 68 19 12 186 11 210 -1z"/>
<path d="M9072 820 c-45 -19 -51 -90 -10 -126 15 -14 43 -19 131 -24 111 -5
112 -5 112 -30 l0 -25 -115 -2 c-141 -3 -160 -7 -160 -33 0 -19 7 -20 145 -20
142 0 147 1 170 25 30 29 32 74 6 106 -18 22 -28 24 -130 27 -113 4 -140 14
-128 46 4 11 25 16 69 18 55 3 63 5 63 23 0 18 -7 20 -65 22 -36 1 -75 -2 -88
-7z"/>
<path d="M8012 808 c-19 -19 -16 -232 3 -248 12 -10 18 -10 30 0 12 10 15 37
15 124 0 103 -7 136 -30 136 -3 0 -11 -5 -18 -12z"/>
</g>
</svg>
